# xmcd CD database file
#
# Track frame offsets:
#	150
#	28463
#	45557
#	73086
#	92658
#	100790
#	112201
#	130565
#	156611
#	180096
#	197924
#	229802
#	263337
#
# Disc length: 3640 seconds
#
# Revision: 0
# Processed by: cddbd v1.5.2PL0 Copyright (c) Steve Scherf et al.
# Submitted via: CDex 1.51
#
DISCID=af0e360d
DTITLE=Artvark Saxophone Quartet - Sly Meets Callas
DYEAR=2012
DGENRE=Jazz
TTITLE0=Aux Anges
TTITLE1=Sly meets Callas
TTITLE2=In the jangling and the wrangling
TTITLE3=Silver sounds
TTITLE4=Breathe in Breathe out
TTITLE5=Beyonzzz
TTITLE6=Burns blues
TTITLE7=No scuttlebutt
TTITLE8=Tranehopping
TTITLE9=Ode to a mouse
TTITLE10=Karpuz
TTITLE11=Weasel and the white boys cool
TTITLE12=Clarons song
EXTD=YEAR: 2012
EXTT0=
EXTT1=
EXTT2=
EXTT3=
EXTT4=
EXTT5=
EXTT6=
EXTT7=
EXTT8=
EXTT9=
EXTT10=
EXTT11=
EXTT12=
PLAYORDER=
